<?xml version="1.0" encoding="utf-8"?>
<!-- Svg Vector Icons : http://www.onlinewebfonts.com/icon -->
<!DOCTYPE svg PUBLIC "-//W3C//DTD SVG 1.1//EN" "http://www.w3.org/Graphics/SVG/1.1/DTD/svg11.dtd">
<svg version="1.1" xmlns="http://www.w3.org/2000/svg" xmlns:xlink="http://www.w3.org/1999/xlink" x="0px" y="0px" viewBox="0 0 1000 1000" enable-background="new 0 0 1000 1000" xml:space="preserve">
<metadata> Svg Vector Icons : http://www.onlinewebfonts.com/icon </metadata>
<g><path d="M10,255.1c0-52.1,42.1-94.3,94.4-94.3h791.2c52.1,0,94.4,42.2,94.4,94.3v489.8c0,52.1-42.1,94.3-94.4,94.3H104.4C52.3,839.2,10,797,10,744.9V255.1z M47.7,254.9c0-31.2,25.1-56.5,56.6-56.5h791.4c31.3,0,56.6,25.1,56.6,56.5v490.1c0,31.2-25.1,56.5-56.6,56.5H104.3c-31.3,0-56.6-25.1-56.6-56.5V254.9z M537.7,631.9h339.2v37.7H537.7V631.9z M47.7,330.4h904.6v150.8H47.7V330.4z"/></g>
</svg>